<?xml version="1.0" encoding="utf-8"?>
<svg version="1.1" xmlns:xlink="http://www.w3.org/1999/xlink" width="16px" height="16px" xmlns="http://www.w3.org/2000/svg">
  <g transform="matrix(1 0 0 1 -216 -604 )">
    <path d="M 224 604  C 228.48 604  232 607.52  232 612  C 232 616.48  228.48 620  224 620  C 219.52 620  216 616.48  216 612  C 216 607.52  219.52 604  224 604  Z " fill-rule="nonzero" fill="#ffffff" stroke="none" />
    <path d="M 224 604.5  C 228.2 604.5  231.5 607.8  231.5 612  C 231.5 616.2  228.2 619.5  224 619.5  C 219.8 619.5  216.5 616.2  216.5 612  C 216.5 607.8  219.8 604.5  224 604.5  Z " stroke-width="1" stroke="#797979" fill="none" />
  </g>
</svg>